<mxfile host="app.diagrams.net" modified="2024-07-02T05:20:55.403Z" agent="Mozilla/5.0 (Macintosh; Intel Mac OS X 10_15_7) AppleWebKit/537.36 (KHTML, like Gecko) Chrome/125.0.0.0 Safari/537.36" etag="V2esyAdJfFz7DIERI_cS" version="24.6.4" type="device">
  <diagram name="Page-1" id="1UQ5gOd2-SmKOVttPpQ0">
    <mxGraphModel dx="866" dy="1696" grid="1" gridSize="10" guides="1" tooltips="1" connect="1" arrows="1" fold="1" page="1" pageScale="1" pageWidth="827" pageHeight="1169" math="0" shadow="0">
      <root>
        <mxCell id="0" />
        <mxCell id="1" parent="0" />
        <mxCell id="tCwpfkyvRH4Wvftq28fG-1" value="" style="image;aspect=fixed;perimeter=ellipsePerimeter;html=1;align=center;shadow=0;dashed=0;spacingTop=3;image=img/lib/active_directory/database_partition_5.svg;" vertex="1" parent="1">
          <mxGeometry x="170" y="190" width="50" height="37" as="geometry" />
        </mxCell>
        <mxCell id="tCwpfkyvRH4Wvftq28fG-2" value="" style="image;aspect=fixed;perimeter=ellipsePerimeter;html=1;align=center;shadow=0;dashed=0;spacingTop=3;image=img/lib/active_directory/database_partition_5.svg;" vertex="1" parent="1">
          <mxGeometry x="300" y="190" width="50" height="37" as="geometry" />
        </mxCell>
        <mxCell id="tCwpfkyvRH4Wvftq28fG-3" value="" style="image;aspect=fixed;perimeter=ellipsePerimeter;html=1;align=center;shadow=0;dashed=0;spacingTop=3;image=img/lib/active_directory/database_partition_5.svg;" vertex="1" parent="1">
          <mxGeometry x="450" y="190" width="50" height="37" as="geometry" />
        </mxCell>
        <mxCell id="tCwpfkyvRH4Wvftq28fG-4" value="" style="image;aspect=fixed;perimeter=ellipsePerimeter;html=1;align=center;shadow=0;dashed=0;spacingTop=3;image=img/lib/active_directory/database_partition_5.svg;" vertex="1" parent="1">
          <mxGeometry x="610" y="190" width="50" height="37" as="geometry" />
        </mxCell>
        <mxCell id="tCwpfkyvRH4Wvftq28fG-5" value="1" style="rounded=1;fillColor=#0065FF;strokeColor=none;html=1;fontColor=#ffffff;align=center;verticalAlign=middle;whiteSpace=wrap;fontSize=18;fontStyle=1;arcSize=50;sketch=0;" vertex="1" parent="1">
          <mxGeometry x="170" y="227" width="40" height="25" as="geometry" />
        </mxCell>
        <mxCell id="tCwpfkyvRH4Wvftq28fG-6" value="2" style="rounded=1;fillColor=#0065FF;strokeColor=none;html=1;fontColor=#ffffff;align=center;verticalAlign=middle;whiteSpace=wrap;fontSize=18;fontStyle=1;arcSize=50;sketch=0;" vertex="1" parent="1">
          <mxGeometry x="300" y="227" width="40" height="25" as="geometry" />
        </mxCell>
        <mxCell id="tCwpfkyvRH4Wvftq28fG-7" value="3" style="rounded=1;fillColor=#0065FF;strokeColor=none;html=1;fontColor=#ffffff;align=center;verticalAlign=middle;whiteSpace=wrap;fontSize=18;fontStyle=1;arcSize=50;sketch=0;" vertex="1" parent="1">
          <mxGeometry x="450" y="227" width="40" height="25" as="geometry" />
        </mxCell>
        <mxCell id="tCwpfkyvRH4Wvftq28fG-8" value="4" style="rounded=1;fillColor=#0065FF;strokeColor=none;html=1;fontColor=#ffffff;align=center;verticalAlign=middle;whiteSpace=wrap;fontSize=18;fontStyle=1;arcSize=50;sketch=0;" vertex="1" parent="1">
          <mxGeometry x="610" y="227" width="40" height="25" as="geometry" />
        </mxCell>
        <mxCell id="tCwpfkyvRH4Wvftq28fG-9" value="" style="endArrow=none;html=1;rounded=0;" edge="1" parent="1">
          <mxGeometry width="50" height="50" relative="1" as="geometry">
            <mxPoint x="200" y="50" as="sourcePoint" />
            <mxPoint x="620" y="50" as="targetPoint" />
          </mxGeometry>
        </mxCell>
        <mxCell id="tCwpfkyvRH4Wvftq28fG-16" value="id % 4" style="edgeLabel;html=1;align=center;verticalAlign=middle;resizable=0;points=[];" vertex="1" connectable="0" parent="tCwpfkyvRH4Wvftq28fG-9">
          <mxGeometry x="-0.0029" y="2" relative="1" as="geometry">
            <mxPoint as="offset" />
          </mxGeometry>
        </mxCell>
        <mxCell id="tCwpfkyvRH4Wvftq28fG-10" value="" style="rhombus;whiteSpace=wrap;html=1;" vertex="1" parent="1">
          <mxGeometry x="370" y="10" width="80" height="80" as="geometry" />
        </mxCell>
        <mxCell id="tCwpfkyvRH4Wvftq28fG-12" value="" style="endArrow=classic;html=1;rounded=0;entryX=0.572;entryY=-0.156;entryDx=0;entryDy=0;entryPerimeter=0;" edge="1" parent="1" target="tCwpfkyvRH4Wvftq28fG-1">
          <mxGeometry width="50" height="50" relative="1" as="geometry">
            <mxPoint x="200" y="50" as="sourcePoint" />
            <mxPoint x="410" y="90" as="targetPoint" />
          </mxGeometry>
        </mxCell>
        <mxCell id="tCwpfkyvRH4Wvftq28fG-13" value="" style="endArrow=classic;html=1;rounded=0;entryX=0.5;entryY=0;entryDx=0;entryDy=0;" edge="1" parent="1" target="tCwpfkyvRH4Wvftq28fG-2">
          <mxGeometry width="50" height="50" relative="1" as="geometry">
            <mxPoint x="325" y="50" as="sourcePoint" />
            <mxPoint x="324.5" y="174" as="targetPoint" />
          </mxGeometry>
        </mxCell>
        <mxCell id="tCwpfkyvRH4Wvftq28fG-14" value="" style="endArrow=classic;html=1;rounded=0;" edge="1" parent="1">
          <mxGeometry width="50" height="50" relative="1" as="geometry">
            <mxPoint x="480" y="50" as="sourcePoint" />
            <mxPoint x="480" y="180" as="targetPoint" />
          </mxGeometry>
        </mxCell>
        <mxCell id="tCwpfkyvRH4Wvftq28fG-15" value="" style="endArrow=classic;html=1;rounded=0;" edge="1" parent="1">
          <mxGeometry width="50" height="50" relative="1" as="geometry">
            <mxPoint x="620" y="50" as="sourcePoint" />
            <mxPoint x="620" y="180" as="targetPoint" />
          </mxGeometry>
        </mxCell>
        <mxCell id="tCwpfkyvRH4Wvftq28fG-17" value="ID % 4" style="text;html=1;align=center;verticalAlign=middle;whiteSpace=wrap;rounded=0;" vertex="1" parent="1">
          <mxGeometry x="380" y="35" width="60" height="30" as="geometry" />
        </mxCell>
        <mxCell id="tCwpfkyvRH4Wvftq28fG-18" value="" style="shape=cylinder3;whiteSpace=wrap;html=1;boundedLbl=1;backgroundOutline=1;size=15;" vertex="1" parent="1">
          <mxGeometry x="260" y="310" width="60" height="80" as="geometry" />
        </mxCell>
        <mxCell id="tCwpfkyvRH4Wvftq28fG-19" value="" style="shape=cylinder3;whiteSpace=wrap;html=1;boundedLbl=1;backgroundOutline=1;size=15;" vertex="1" parent="1">
          <mxGeometry x="490" y="310" width="60" height="80" as="geometry" />
        </mxCell>
        <mxCell id="tCwpfkyvRH4Wvftq28fG-20" value="" style="shape=cylinder3;whiteSpace=wrap;html=1;boundedLbl=1;backgroundOutline=1;size=15;" vertex="1" parent="1">
          <mxGeometry x="260" y="454" width="60" height="80" as="geometry" />
        </mxCell>
        <mxCell id="tCwpfkyvRH4Wvftq28fG-21" value="" style="shape=cylinder3;whiteSpace=wrap;html=1;boundedLbl=1;backgroundOutline=1;size=15;" vertex="1" parent="1">
          <mxGeometry x="490" y="454" width="60" height="80" as="geometry" />
        </mxCell>
        <mxCell id="tCwpfkyvRH4Wvftq28fG-22" value="Shard 0" style="text;html=1;align=center;verticalAlign=middle;whiteSpace=wrap;rounded=0;" vertex="1" parent="1">
          <mxGeometry x="250" y="270" width="60" height="30" as="geometry" />
        </mxCell>
        <mxCell id="tCwpfkyvRH4Wvftq28fG-23" value="Shard 1" style="text;html=1;align=center;verticalAlign=middle;whiteSpace=wrap;rounded=0;" vertex="1" parent="1">
          <mxGeometry x="490" y="270" width="60" height="30" as="geometry" />
        </mxCell>
        <mxCell id="tCwpfkyvRH4Wvftq28fG-24" value="Shard 2" style="text;html=1;align=center;verticalAlign=middle;whiteSpace=wrap;rounded=0;" vertex="1" parent="1">
          <mxGeometry x="260" y="420" width="60" height="30" as="geometry" />
        </mxCell>
        <mxCell id="tCwpfkyvRH4Wvftq28fG-25" value="Shard 3" style="text;html=1;align=center;verticalAlign=middle;whiteSpace=wrap;rounded=0;" vertex="1" parent="1">
          <mxGeometry x="490" y="420" width="60" height="30" as="geometry" />
        </mxCell>
        <mxCell id="tCwpfkyvRH4Wvftq28fG-26" value="ID - 0,4,8,12&lt;span style=&quot;white-space: pre;&quot;&gt;&#x9;&lt;/span&gt;" style="text;html=1;align=center;verticalAlign=middle;whiteSpace=wrap;rounded=0;" vertex="1" parent="1">
          <mxGeometry x="260" y="350" width="60" height="30" as="geometry" />
        </mxCell>
        <mxCell id="tCwpfkyvRH4Wvftq28fG-27" value="ID - 2,6,10,14" style="text;html=1;align=center;verticalAlign=middle;whiteSpace=wrap;rounded=0;" vertex="1" parent="1">
          <mxGeometry x="260" y="490" width="60" height="30" as="geometry" />
        </mxCell>
        <mxCell id="tCwpfkyvRH4Wvftq28fG-28" value="ID - 3, 7, 11,15" style="text;html=1;align=center;verticalAlign=middle;whiteSpace=wrap;rounded=0;" vertex="1" parent="1">
          <mxGeometry x="490" y="490" width="60" height="30" as="geometry" />
        </mxCell>
        <mxCell id="tCwpfkyvRH4Wvftq28fG-29" value="ID - 1,5,9, 13" style="text;html=1;align=center;verticalAlign=middle;whiteSpace=wrap;rounded=0;" vertex="1" parent="1">
          <mxGeometry x="490" y="350" width="60" height="30" as="geometry" />
        </mxCell>
        <mxCell id="tCwpfkyvRH4Wvftq28fG-30" value="" style="rounded=0;whiteSpace=wrap;html=1;fillOpacity=0;" vertex="1" parent="1">
          <mxGeometry x="120" y="-20" width="560" height="590" as="geometry" />
        </mxCell>
      </root>
    </mxGraphModel>
  </diagram>
</mxfile>
